<?xml version="1.0" encoding="utf-8"?>
<!-- Generator: Adobe Illustrator 18.1.1, SVG Export Plug-In . SVG Version: 6.00 Build 0)  -->
<svg version="1.1" id="Ebene_1" xmlns="http://www.w3.org/2000/svg" xmlns:xlink="http://www.w3.org/1999/xlink" x="0px" y="0px"
	 viewBox="0 0 500 125" enable-background="new 0 0 500 125" xml:space="preserve">
<rect width="500" height="125"/>
<g>
	<path fill="#FFFFFF" d="M56.8,97v-9.1l14-49.5H58.1v-8.9h23.5v8.3l-14,50.3h13.7V97H56.8z"/>
	<path fill="#FFFFFF" d="M115.1,93.3c-2.4,2.9-6.1,4.4-11.3,4.4c-5.2,0-9-1.5-11.4-4.4c-2.4-2.9-3.5-7.5-3.5-13.7V29.4h10.3v50
		c0,3.6,0.2,5.7,0.5,6.5c0.3,0.8,0.7,1.5,1.2,2.1c0.5,0.6,1.5,0.9,2.9,0.9c1.5,0,2.5-0.4,3.2-1.3c0.6-0.9,1-2,1.2-3.2
		c0.1-1.3,0.2-2.9,0.2-5v-50h10.3v50.2C118.6,85.8,117.4,90.4,115.1,93.3z"/>
	<path fill="#FFFFFF" d="M128.3,97V29.4h12.8l9.6,49.3l9-49.3h12.9V97h-9.2V71.8l0.4-23.1l-9.1,48h-8.2l-9.5-48l0.4,23.1V97H128.3z"
		/>
	<path fill="#FFFFFF" d="M196.8,97V29.4h15.5c5.2,0,8.8,1.6,10.8,4.8c1.9,3.2,2.9,7.9,3,14.3v1.4c0,6.7-1,11.8-2.9,15.2
		c-1.9,3.5-5.4,5.2-10.6,5.2h-5.6V97H196.8z M207.1,61.9h3.5c2.2,0,3.6-0.8,4.2-2.5c0.7-1.7,1-4.9,1-9.6v-1.3c0-4-0.4-6.8-1.1-8.6
		c-0.7-1.7-2-2.6-4.1-2.6h-3.6V61.9z"/>
	<path fill="#FFFFFF" d="M246.6,65.2l-3.3-0.2V97H233V29.4h17c3.5,0,6.2,0.7,7.9,2.1s2.9,3.4,3.4,5.9s0.8,5.9,0.8,10
		s-0.4,7.2-1.3,9.4c-0.9,2.1-2.5,3.6-4.8,4.3c2.3,0.4,4,2,4.9,4.7c0.9,2.7,1.4,8.4,1.4,17.1s0.1,13.3,0.4,13.9h-10.3
		c-0.3-0.5-0.4-8.6-0.4-24.2c0-3-0.4-5-1.1-6C250.2,65.8,248.8,65.3,246.6,65.2z M243.4,57.1h4.1c1.3,0,2.3-0.3,2.9-0.9
		c0.6-0.6,1.1-1.6,1.3-3c0.2-1.4,0.4-3.6,0.4-6.6v-0.4c0-3.7-0.3-6-0.9-7.2c-0.6-1.1-2-1.7-4.3-1.7h-3.5V57.1z"/>
	<path fill="#FFFFFF" d="M297.3,92.9c-2.4,3.2-6.1,4.9-11.3,4.9c-5.2,0-9-1.6-11.4-4.9s-3.6-8.2-3.6-14.8V47.2
		c0-12.4,5.1-18.6,15.2-18.6c5.2,0,9,1.6,11.3,4.7c2.3,3.1,3.4,7.8,3.4,13.8v30.9C300.8,84.7,299.6,89.6,297.3,92.9z M282.2,86.5
		c0.6,1.6,1.8,2.3,3.7,2.3c1.9,0,3.1-0.8,3.7-2.4c0.6-1.6,0.9-4.3,0.9-8.2V46.7c0-3.2-0.3-5.5-0.9-7c-0.6-1.5-1.8-2.2-3.5-2.2
		s-3,0.7-3.7,2.2c-0.7,1.5-1.1,3.8-1.1,7v31.5C281.3,82.2,281.6,84.9,282.2,86.5z"/>
	<path fill="#FFFFFF" d="M310.1,97V29.4h15.2c5,0,8.6,1.5,10.8,4.4c2.2,2.9,3.4,7.2,3.4,12.9l0,30.5c0,6.8-1.1,11.8-3.4,15
		c-2.3,3.2-6,4.8-11.2,4.8H310.1z M320.4,89h3.4c1.9,0,3.3-0.6,4.1-1.8c0.9-1.2,1.3-3.5,1.3-6.8l0-33.3c0-3.5-0.4-6-1.3-7.5
		c-0.9-1.5-2.3-2.2-4.4-2.2h-3V89z"/>
	<path fill="#FFFFFF" d="M374.5,93.3c-2.4,2.9-6.1,4.4-11.3,4.4s-9-1.5-11.4-4.4c-2.4-2.9-3.5-7.5-3.5-13.7V29.4h10.3v50
		c0,3.6,0.2,5.7,0.5,6.5c0.3,0.8,0.7,1.5,1.2,2.1c0.5,0.6,1.5,0.9,2.9,0.9s2.5-0.4,3.2-1.3c0.6-0.9,1-2,1.2-3.2
		c0.1-1.3,0.2-2.9,0.2-5v-50h10.3v50.2C378.1,85.8,376.9,90.4,374.5,93.3z"/>
	<path fill="#FFFFFF" d="M387.8,97V29.4h10.3v31.1l10.3-31.1H419l-11.2,33.3L419.9,97H409l-10.9-31.5V97H387.8z"/>
	<path fill="#FFFFFF" d="M428.5,97V38.3h-7.9v-8.9h25.7v8.9h-7.6V97H428.5z"/>
</g>
</svg>
