<?xml version="1.0" encoding="utf-8"?>
<!-- Generator: Adobe Illustrator 20.1.0, SVG Export Plug-In . SVG Version: 6.00 Build 0)  -->
<svg version="1.1" id="Ebene_1" xmlns="http://www.w3.org/2000/svg" xmlns:xlink="http://www.w3.org/1999/xlink" x="0px" y="0px"
	 viewBox="0 0 600 70" style="enable-background:new 0 0 600 70;" xml:space="preserve">
<style type="text/css">
	.st0{fill:#6575A7;}
	.st1{fill:#FFFFFF;}
</style>
<rect y="0.1" class="st0" width="600" height="70"/>
<g>
	<path class="st1" d="M115.9,54.3h-4.2l-5-36.8h5l2.1,19.1l0.1,1.2h0.4l0.1-1.2l2.3-19.1h3.9l2.3,19.1l0.2,1.2h0.4l0.1-1.2l2.1-19.1
		h5l-5,36.8h-4.2l-2.5-17.4l-0.3-2.1h-0.2l-0.3,2.1L115.9,54.3z"/>
	<path class="st1" d="M133.5,17.5h12.4v5.6h-7v9.7h5v5.9h-5v10.1h7v5.6h-12.4V17.5z"/>
	<path class="st1" d="M148.8,17.5h5.4v36.8h-5.4V17.5z"/>
	<path class="st1" d="M156.3,23.1v-5.6h15.6v5.6h-5.1v31.2h-5.4V23.1H156.3z"/>
	<path class="st1" d="M174,17.5h12.4v5.6h-7v9.7h5v5.9h-5v10.1h7v5.6H174V17.5z"/>
	<path class="st1" d="M199,54.3l-2.8-15.5h-1.5v15.5h-5.4V17.5h5.4c6.5,0,9.2,3.7,9.2,10.6c0,3.6-1,7-3,8.4l3.5,17.8H199z
		 M194.8,33.8c0.8,0,1.8-0.1,2.6-0.8c0.8-0.7,1.5-2.1,1.5-4.7s-0.7-4-1.5-4.7c-0.8-0.7-1.8-0.8-2.6-0.8V33.8z"/>
	<path class="st1" d="M207.4,17.5h12.4v5.6h-7v9.7h5v5.9h-5v10.1h7v5.6h-12.4V17.5z"/>
	<path class="st1" d="M230.5,17.5h5.4c2.4,0,4.7,0.6,6.5,2.3s3,4.5,3,8.7s-1.2,7-3,8.7c-1.8,1.7-4.2,2.4-6.5,2.4v14.7h-5.4V17.5z
		 M235.9,34.1c1.7,0,2.7-0.3,3.3-1.1c0.6-0.8,0.8-2.2,0.8-4.2c0-2-0.1-3.5-0.8-4.4c-0.6-0.9-1.6-1.3-3.3-1.3V34.1z"/>
	<path class="st1" d="M262.1,46.7c0,1.5-0.3,2.9-0.9,4c-0.5,1-1.1,1.9-2.1,2.7c-1,0.8-2.4,1.2-4.2,1.2s-3.2-0.5-4.2-1.2
		c-1-0.8-1.7-1.7-2.1-2.7c-0.6-1.2-0.9-2.5-0.9-4V25.1c0.1-1.5,0.4-2.8,0.9-4c0.4-1,1.1-2,2.1-2.8s2.4-1.2,4.2-1.2s3.1,0.5,4.2,1.2
		c1,0.8,1.7,1.8,2.1,2.8c0.6,1.1,0.9,2.5,0.9,4V46.7z M256.7,25.1c0-1-0.2-1.7-0.7-2.3c-0.2-0.2-0.6-0.4-1.1-0.4
		c-1,0-1.4,0.7-1.6,1.4c-0.1,0.4-0.2,0.9-0.2,1.4v21.7c0,1.1,0.2,1.8,0.8,2.3c0.2,0.2,0.6,0.4,1.1,0.4c1,0,1.4-0.6,1.6-1.3
		c0.1-0.4,0.2-0.8,0.2-1.4V25.1z"/>
	<path class="st1" d="M274.7,27.4c0-1.2,0-2.5-0.4-3.6c-0.4-1-0.9-1.7-1.8-1.7c-1.4,0.1-1.9,1.5-1.9,3.7c0,1.2,0.6,2.6,1.4,4
		c0.8,1.4,1.9,2.9,2.9,4.4c1.2,1.8,2.5,3.8,3.5,5.6c1,1.8,1.6,3.8,1.6,5.8c0,2.5-0.4,4.8-1.6,6.5c-1.1,1.7-3,2.8-6,2.8
		c-3.5,0-5.4-1.3-6.5-3.3s-1.4-4.7-1.4-7.4l5.3-0.5c0,1.5,0.1,3.1,0.5,4.2c0.4,1.2,1,2,2.1,2c1.6,0,2.2-1.7,2.2-4.1
		c0-1.2-0.6-2.6-1.4-4c-0.5-0.7-0.9-1.5-1.4-2.2c-1-1.5-2.2-3.2-3.4-5.1c-1.2-1.9-2.1-3.8-2.7-5.7c-0.3-1-0.5-2-0.5-3
		c0-2,0.5-4.2,1.6-5.8c1.2-1.6,2.9-2.8,5.5-2.8c3.2,0,5.2,1.3,6.2,3.3c1.1,2,1.4,4.5,1.4,6.5L274.7,27.4z"/>
	<path class="st1" d="M281,23.1v-5.6h15.6v5.6h-5.1v31.2h-5.4V23.1H281z"/>
	<path class="st1" d="M298.7,17.5h12.4v5.6h-7v9.7h5v5.9h-5v10.1h7v5.6h-12.4V17.5z"/>
	<path class="st1" d="M323.7,54.3l-2.8-15.5h-1.5v15.5h-5.4V17.5h5.4c6.5,0,9.2,3.7,9.2,10.6c0,3.6-0.9,7-3,8.4l3.5,17.8H323.7z
		 M319.5,33.8c0.8,0,1.8-0.1,2.5-0.8c0.8-0.7,1.5-2.1,1.5-4.7s-0.6-4-1.5-4.7c-0.8-0.7-1.8-0.8-2.5-0.8V33.8z"/>
	<path class="st1" d="M339.8,17.5h12.4v5.6h-7v9.7h5v5.9h-5v10.1h7v5.6h-12.4V17.5z"/>
	<path class="st1" d="M360.9,35.1l-0.5-1.7h-0.3v20.9h-5V17.5h4.8l5.2,19.2l0.5,1.7h0.3V17.5h5v36.8h-4.8L360.9,35.1z"/>
	<path class="st1" d="M373,23.1v-5.6h15.6v5.6h-5.1v31.2h-5.4V23.1H373z"/>
	<path class="st1" d="M390.7,54.3V17.5h4.2c5,0,7.7,1,9.2,3.8c1.4,2.8,1.6,7.4,1.6,14.6c0,7.2-0.2,11.8-1.6,14.6
		c-1.5,2.8-4.2,3.8-9.2,3.8H390.7z M396.1,48.9c1.9,0,2.9-0.2,3.5-2c0.2-0.9,0.5-2.2,0.5-3.9s0-4.1,0-7.1s0-5.4,0-7.1
		c0-1.7-0.2-3-0.5-3.9c-0.5-1.8-1.6-2-3.5-2V48.9z"/>
	<path class="st1" d="M409.3,17.5h12.4v5.6h-7v9.7h5v5.9h-5v10.1h7v5.6h-12.4V17.5z"/>
	<path class="st1" d="M438.7,41.7v5c0,1.5-0.3,2.9-0.9,4c-0.5,1-1.2,1.9-2.2,2.7c-1,0.8-2.4,1.2-4.2,1.2s-3.2-0.5-4.2-1.2
		c-1-0.8-1.7-1.7-2.1-2.7c-0.5-1.2-0.8-2.5-0.9-4V25.1c0-1.5,0.3-2.8,0.9-4c0.5-1,1.1-2,2.1-2.8s2.4-1.2,4.2-1.2s3.2,0.5,4.2,1.2
		s1.7,1.8,2.2,2.8c0.5,1.1,0.8,2.5,0.9,4v5.1h-5v-5.1c0-1-0.2-1.7-0.8-2.3c-0.2-0.2-0.7-0.4-1.2-0.4c-0.9,0-1.4,0.7-1.6,1.4
		c-0.2,0.4-0.2,0.9-0.2,1.4v21.7c0,1.1,0.3,1.8,0.8,2.3c0.2,0.2,0.6,0.4,1,0.4c1.2,0,1.6-0.6,1.9-1.3c0.1-0.4,0.2-0.8,0.2-1.4v-5
		H438.7z"/>
	<path class="st1" d="M447.4,17.5v12.9h0.2l0.2-0.6l4.5-12.3h5.3l-5,12.1l5.6,24.7H453l-3.8-16l-0.2-0.8h-0.2l-0.3,0.8l-1.2,3v13
		H442V17.5H447.4z"/>
	<path class="st1" d="M460.7,17.5h12.4v5.6h-7v9.7h5v5.9h-5v10.1h7v5.6h-12.4V17.5z"/>
	<path class="st1" d="M481.8,35.1l-0.5-1.7H481v20.9h-5V17.5h4.8l5.2,19.2l0.5,1.7h0.3V17.5h5v36.8H487L481.8,35.1z"/>
</g>
</svg>
