<?xml version="1.0" encoding="utf-8"?>
<!-- Generator: Adobe Illustrator 20.1.0, SVG Export Plug-In . SVG Version: 6.00 Build 0)  -->
<svg version="1.1" id="Ebene_1" xmlns="http://www.w3.org/2000/svg" xmlns:xlink="http://www.w3.org/1999/xlink" x="0px" y="0px"
	 viewBox="0 0 200 90" style="enable-background:new 0 0 200 90;" xml:space="preserve">
<style type="text/css">
	.st0{clip-path:url(#SVGID_2_);fill:#737373;}
	.st1{clip-path:url(#SVGID_2_);fill:#4D4D4D;}
	.st2{clip-path:url(#SVGID_2_);fill:#D6D6D6;}
</style>
<g>
	<defs>
		<rect id="SVGID_1_" x="14.3" y="3.9" width="171.3" height="82.3"/>
	</defs>
	<clipPath id="SVGID_2_">
		<use xlink:href="#SVGID_1_"  style="overflow:visible;"/>
	</clipPath>
	<path class="st0" d="M158.9,6.1c-16.5,5.5-24,14.6-22.4,26.6C136.5,32.7,144,23.8,158.9,6.1"/>
	<path class="st1" d="M158.9,6.1c-3,17.6-10.7,26.5-22.4,26.6C136.5,32.7,144,23.8,158.9,6.1"/>
	<path class="st0" d="M185.7,27.7c-17.6-6.9-30-4.5-36.6,6.5C149.1,34.2,161.3,32.1,185.7,27.7"/>
	<path class="st1" d="M185.7,27.7c-14.1,12.5-26.5,14.6-36.6,6.5C149.1,34.2,161.3,32.1,185.7,27.7"/>
	<path class="st0" d="M168.7,57.9c-9.2-15.3-19.6-20.9-30.6-16.9C138.1,41,148.3,46.6,168.7,57.9"/>
	<path class="st1" d="M168.7,57.9c-17.4,0.7-27.7-5.1-30.6-16.9C138.1,41,148.3,46.6,168.7,57.9"/>
	<path class="st0" d="M137.3,3.9c-17.3,8.4-24.3,19.6-21,32.6C116.3,36.4,123.3,25.6,137.3,3.9"/>
	<path class="st1" d="M137.3,3.9c-0.8,19.8-8.1,30.8-21,32.6C116.3,36.4,123.3,25.6,137.3,3.9"/>
	<path class="st0" d="M150.5,69C142,51,131,43.7,118.4,46.9C118.4,46.9,129.1,54.3,150.5,69"/>
	<path class="st1" d="M150.5,69c-19.3-1.2-30.1-8.8-32.1-22.1C118.4,46.9,129.1,54.3,150.5,69"/>
	<path class="st0" d="M113.9,5.1c-15.9,11-21.2,23.1-16,35.5C97.9,40.6,103.3,28.8,113.9,5.1"/>
	<path class="st1" d="M113.9,5.1c2,19.7-3.5,31.7-16,35.5C97.9,40.6,103.3,28.8,113.9,5.1"/>
	<path class="st0" d="M131.1,76.5c-7.2-18.5-17.6-26.7-30.4-24.4C100.7,52.1,110.8,60.2,131.1,76.5"/>
	<path class="st1" d="M131.1,76.5c-19.2-2.6-29.4-11-30.4-24.4C100.7,52.1,110.8,60.2,131.1,76.5"/>
	<path class="st0" d="M94.7,9c-15.3,11.8-20,24.3-14.2,36.4C80.6,45.4,85.3,33.3,94.7,9"/>
	<path class="st1" d="M94.7,9c3,19.6-1.9,31.9-14.2,36.4C80.6,45.4,85.3,33.3,94.7,9"/>
	<path class="st0" d="M111.8,84.2c-5.8-19-15.5-28-28.5-26.8C83.3,57.5,92.8,66.4,111.8,84.2"/>
	<path class="st1" d="M111.8,84.2c-18.9-4.2-28.5-13.4-28.5-26.8C83.3,57.5,92.8,66.4,111.8,84.2"/>
	<path class="st0" d="M74.1,20.3C60.6,30.8,56.5,41.7,61.6,52.4C61.6,52.4,65.7,41.7,74.1,20.3"/>
	<path class="st1" d="M74.1,20.3c2.7,17.3-1.7,28.2-12.5,32.1C61.6,52.4,65.7,41.7,74.1,20.3"/>
	<path class="st0" d="M89.6,86.1C84.3,69.5,75.5,61.7,64.1,63C64.1,63,72.6,70.7,89.6,86.1"/>
	<path class="st1" d="M89.6,86.1C72.9,82.8,64.3,74.8,64.1,63C64.1,63,72.6,70.7,89.6,86.1"/>
	<path class="st0" d="M54.5,34c-11,8.6-14.4,17.5-10.2,26.2C44.3,60.2,47.7,51.5,54.5,34"/>
	<path class="st1" d="M54.5,34c2.2,14.2-1.4,23-10.2,26.2C44.3,60.2,47.7,51.5,54.5,34"/>
	<path class="st0" d="M69.8,84.4c-6-13-13.9-18.4-23-16.1C46.8,68.3,54.5,73.7,69.8,84.4"/>
	<path class="st1" d="M69.8,84.4c-13.9-0.9-21.7-6.5-23-16.1C46.8,68.3,54.5,73.7,69.8,84.4"/>
	<path class="st2" d="M150.7,15.5c0,0,0.1-0.1,0.3-0.3c-0.8-1-1.2-2.4-1.1-4.1C149.3,12.8,149.6,14.2,150.7,15.5"/>
	<path class="st2" d="M158.2,51.9c0.8-1.1,2-1.7,3.6-2c-1.7-0.2-3.1,0.4-4,1.8C157.8,51.7,157.9,51.7,158.2,51.9"/>
	<path class="st2" d="M121.1,28.2c-1.6-2.5-2.3-5-2.1-7.5c-0.5,3.1,0,5.9,1.6,8.2C120.6,28.9,120.8,28.7,121.1,28.2"/>
	<path class="st2" d="M129.8,15c-1.1-1-1.7-2.5-1.8-4.4c-0.4,1.9,0.1,3.5,1.5,4.8C129.6,15.4,129.6,15.3,129.8,15"/>
	<path class="st2" d="M89.5,22c0,0,0.1-0.2,0.2-0.5c-1.2-0.8-2.1-2.1-2.6-3.9C87,19.6,87.8,21.1,89.5,22"/>
	<path class="st2" d="M64.3,44.4c-1.8-1.9-2.8-3.9-3.1-6.1c0.1,2.8,1,5.1,2.8,6.8C64,45.1,64.1,44.9,64.3,44.4"/>
	<path class="st2" d="M60.5,59.1c5.7-2.1,11.5-4.1,17.4-6c2,1.9,12.6,11.7,31.9,29.2c-2.7-2.7-5.3-5.2-7.7-7.5
		c1.1-0.9,2.6-1.3,4.5-1.1c-1.8-0.7-3.4-0.5-4.8,0.8c-1.7-1.7-3.4-3.3-4.9-4.8c2.4-1.4,4.6-1.8,6.6-1.3c-2-1.1-4.4-0.8-7.2,0.7
		c-2-2-3.9-3.8-5.6-5.4c2.6-1.2,5.1-1.5,7.5-0.9c-3-1.1-5.7-1-8.1,0.3c-5.7-5.5-9.4-9-10.9-10.4c5.1-1.6,10.3-3.2,15.6-4.8
		c1.3,1,12.6,10.1,34.3,26.8c-3-2.5-5.8-4.9-8.4-7c0.1,0,0.1,0.1,0.2,0.2c1.1-1,2.5-1.5,4.3-1.5c-1.9-0.6-3.4-0.2-4.7,1.2
		c-1.9-1.6-3.8-3.1-5.5-4.6c0.1,0.1,0.1,0.1,0.2,0.2c2.3-1.6,4.5-2.1,6.5-1.8c-2.1-0.9-4.5-0.5-7.1,1.3c0,0,0.1,0.1,0.2,0.2
		c-2.3-1.9-4.3-3.6-6.2-5.1c2.5-1.4,4.9-1.9,7.4-1.5c-3-0.8-5.7-0.5-8,0.9c0,0,0.1,0.1,0.2,0.2c-6.4-5.3-10.5-8.6-12.1-9.8
		c5.3-1.5,10.6-3,16-4.4c0.8,0.5,12.7,8.8,36.2,24.2c-3.1-2.2-6-4.3-8.7-6.2c1-1.1,2.4-1.7,4.2-1.8c-1.9-0.4-3.4,0.1-4.6,1.5
		c-2-1.4-3.8-2.7-5.6-4c2.2-1.7,4.3-2.5,6.4-2.3c-2.2-0.8-4.5-0.1-7,1.8c-2.3-1.6-4.4-3.1-6.3-4.5c2.4-1.6,4.8-2.3,7.2-2.1
		c-3.1-0.6-5.7-0.1-7.9,1.6c0,0,0.1,0,0.2,0.1c-6.7-4.7-10.9-7.6-12.6-8.8c6.1-1.6,12.3-3.1,18.6-4.5c0.7,0.4,12.2,6.7,34.5,18.4
		c-5.4-3.1-10.1-5.8-14.3-8.2c0.1,0,0.1,0.1,0.2,0.1c1.8-1.8,3.6-2.6,5.5-2.6c-2-0.5-4,0.3-6.1,2.3c-2.3-1.3-4.3-2.5-6.2-3.5
		c0,0,0.1,0,0.1,0.1c2-1.6,4.1-2.5,6.3-2.5c-2.8-0.3-5.1,0.4-7,2.1c0,0,0.1,0,0.2,0.1c-6.1-3.4-10-5.6-11.8-6.6
		c15.3-3.5,31.2-6.7,47.4-9.5c-2.7,0.4-5.3,0.8-8,1.2c0-1.4,0.6-2.7,1.7-4c-1.5,1-2.3,2.3-2.2,4.1c-2.1,0.3-4.3,0.7-6.4,1
		c0.4-2.6,1.4-4.6,2.9-5.8c-1.9,0.9-3.1,2.9-3.6,5.9c-2.5,0.4-4.9,0.8-7.3,1.2c0.6-2.7,1.8-4.8,3.6-6.3c-2.5,1.6-3.9,3.8-4.4,6.4
		c-8,1.4-15.8,2.9-23.4,4.5c2.9-3.4,10.8-12.9,23.5-28.7c-4,4.6-7.6,8.6-10.7,12.2c0,0,0,0,0,0c-1.3-2.2-1.7-4.3-1.3-6.1
		c-0.9,1.9-0.6,4.1,0.9,6.6c0,0,0,0,0.1-0.1c-1.7,1.9-3.2,3.7-4.6,5.3c-1.1-2.4-1.5-4.7-1.1-6.9c-0.8,2.7-0.7,5.2,0.5,7.5
		c0,0,0,0,0.1-0.1c-5.1,5.9-8.1,9.5-9.1,10.6c-6.2,1.3-12.3,2.7-18.3,4.2c2.7-4.2,10.1-15.8,21.9-35.1c-3.8,5.6-7.1,10.6-10,14.9
		c-1.7-2.3-2.5-4.5-2.3-6.6c-0.7,2.2-0.1,4.6,1.9,7.2c0,0,0.1-0.2,0.3-0.5c-7.6,11.4-12,18.2-13.4,20.4c-5.5,1.4-10.8,2.8-16.1,4.2
		c2-4.4,7.6-17.1,16.6-38.2c-1.6,3.5-3.2,6.7-4.6,9.7c-1.2-0.9-2-2.2-2.4-4.1c-0.1,2,0.6,3.5,2.2,4.5c-1,2.2-2,4.2-2.9,6.2
		c-2-2-3.1-4-3.2-6.2c-0.4,2.3,0.6,4.6,2.9,6.8c0,0,0,0,0,0c-1.2,2.6-2.3,4.9-3.3,7.1c-1.9-2.2-3-4.6-3.2-7.1
		c-0.1,3.2,0.8,5.8,2.8,7.9c0,0,0,0,0.1-0.1c-3.4,7.4-5.5,12.1-6.4,13.9c-5.4,1.5-10.6,3.1-15.8,4.7c1.7-4.3,6.7-17.4,14.7-39.3
		c-2.6,6.3-4.9,11.9-6.9,16.7c-2.1-1.9-3.3-3.9-3.5-6c-0.3,2.3,0.8,4.6,3.3,6.7c0,0,0.1-0.1,0.2-0.4c-1.3,3.1-2.4,5.9-3.4,8.4
		c0-0.1,0.1-0.3,0.3-0.8c-2-2.1-3.2-4.4-3.5-6.9c0.1,3.2,1.1,5.8,3.2,7.7c-3.1,7.8-5,12.5-5.7,14.3c-5.9,1.9-11.7,3.8-17.4,5.8
		c1.5-3.9,5.9-15.4,12.9-34.6c-1.3,3.1-2.5,6-3.6,8.8c-1.1-0.7-1.9-1.9-2.3-3.5c0,1.7,0.7,3,2.2,3.9c0,0,0,0,0-0.1
		c-0.8,2-1.6,3.9-2.3,5.7c-1.9-1.7-2.9-3.4-3.1-5.3c-0.2,2.1,0.7,4,2.9,5.9c-4.5,11-7.1,17.6-7.9,19.7c-5.4,1.9-10.7,3.9-15.9,6
		c1.3-3.5,4.9-12.8,10.5-28c-1.1,2.5-2,4.9-2.9,7.1c-0.8-0.6-1.3-1.5-1.7-2.7c0,1.3,0.5,2.4,1.5,3c-0.7,1.6-1.3,3.1-1.8,4.5
		c-1.4-1.3-2.2-2.7-2.4-4.1c-0.2,1.6,0.5,3.2,2.2,4.6c-0.8,1.9-1.5,3.6-2.1,5.2C45,52,44.2,50.4,44,48.6c0.1,2.2,0.8,4,2.1,5.4
		c-2.1,5.2-3.4,8.6-4,10c-0.4,0.2-0.9,0.3-1.3,0.5c-10.5,3.8-18.9,5.1-24.9,6.6c-1.7,1.3-2,2.9-1,4.9c5.8-0.9,15.6-4.8,25.4-9
		c0.8-0.4,1.7-0.7,2.5-1c2.5,1.8,10.9,7.5,25.2,17.1c-13.2-9.6-21.3-15.4-24.3-17.4c5.1-2.1,10.4-4.2,15.7-6.2
		c2.6,2.3,11.9,10.7,28.2,24.9C72.6,70.2,63.5,61.9,60.5,59.1"/>
	<path class="st2" d="M70.1,67.9c0,0,0.2,0.2,0.6,0.5c2.3-1.1,4.5-1.4,6.6-0.9C74.6,66.6,72.2,66.7,70.1,67.9"/>
	<path class="st2" d="M75.7,73.1c0,0,0.2,0.2,0.5,0.5c2.1-1.2,4.1-1.6,5.8-1.2C80.2,71.4,78.1,71.7,75.7,73.1"/>
	<path class="st2" d="M80.6,77.7c0,0,0.1,0.1,0.3,0.3c1-0.8,2.3-1.2,3.9-1.1C83.2,76.3,81.8,76.6,80.6,77.7"/>
	<path class="st2" d="M52.1,71.6c0,0,0.2,0.1,0.5,0.4c1.7-1.1,3.5-1.6,5.2-1.5C55.7,70.1,53.7,70.4,52.1,71.6"/>
	<path class="st2" d="M57.2,75.3c0,0,0.1,0.1,0.4,0.3c1.6-1.2,3.1-1.8,4.6-1.6C60.7,73.4,59,73.8,57.2,75.3"/>
	<path class="st2" d="M61.6,78.5c0,0,0.1,0.1,0.3,0.2c0.7-0.8,1.7-1.2,3.1-1.3C63.6,77.1,62.5,77.4,61.6,78.5"/>
</g>
</svg>
